<svg width="0" height="0" class="hidden">
    <symbol xmlns="http://www.w3.org/2000/svg" xmlns:xlink="http://www.w3.org/1999/xlink" viewBox="0 0 107px 109px" id="imaginary">
        <path opacity="0.844" fill="currentColor" d="M 52.5,1.5 C 53.675,1.28099 54.675,1.61432 55.5,2.5C 56.7348,6.60145 58.2348,10.6015 60,14.5C 60.677,12.311 61.8437,11.9776 63.5,13.5C 64.6537,24.949 63.8204,36.2824 61,47.5C 59.9887,48.3366 58.8221,48.67 57.5,48.5C 57.9838,51.7977 56.9838,54.4643 54.5,56.5C 51.2398,54.041 49.7398,50.7076 50,46.5C 48.5354,47.3685 47.3687,46.8685 46.5,45C 43.6199,36.6553 41.7865,28.1553 41,19.5C 43.0627,17.2698 44.396,14.6031 45,11.5C 46.0113,10.6634 47.1779,10.33 48.5,10.5C 49.2664,14.8324 50.0997,19.1658 51,23.5C 51.6496,18.8092 51.4829,14.1425 50.5,9.5C 50.8615,6.7205 51.5282,4.05383 52.5,1.5 Z"></path>
        <path opacity="0.71" fill="currentColor" d="M 28.5,26.5 C 36.4326,29.2688 41.4326,34.7688 43.5,43C 43.1667,43.5 42.8333,44 42.5,44.5C 34.4336,41.105 29.7669,35.105 28.5,26.5 Z"></path>
        <path opacity="0.71" fill="currentColor" d="M 76.5,26.5 C 77.4972,26.4701 78.1639,26.9701 78.5,28C 76.5406,35.7931 71.8739,41.2931 64.5,44.5C 63.7825,41.7581 64.2825,39.0914 66,36.5C 69.2034,32.8224 72.7034,29.489 76.5,26.5 Z"></path>
        <path opacity="0.835" fill="currentColor" d="M 14.5,36.5 C 24.6639,38.1641 33.8305,42.1641 42,48.5C 42.4828,49.448 42.6495,50.448 42.5,51.5C 41.448,51.3505 40.448,51.5172 39.5,52C 48.5727,55.1982 48.2393,58.0315 38.5,60.5C 37.6872,61.8139 36.6872,62.9805 35.5,64C 27.1667,64.6667 18.8333,64.6667 10.5,64C 7.89409,63.5495 6.56075,62.0495 6.5,59.5C 10.1419,58.9196 13.8086,58.4196 17.5,58C 14.5,57.6667 11.5,57.3333 8.5,57C 6.00312,56.5883 4.00312,55.4216 2.5,53.5C 4.95665,52.0186 7.62332,50.852 10.5,50C 13.1667,49.6667 15.8333,49.3333 18.5,49C 16.8695,45.9377 17.8695,44.271 21.5,44C 17.5442,42.8819 15.2108,40.3819 14.5,36.5 Z"></path>
        <path opacity="0.836" fill="currentColor" d="M 88.5,36.5 C 89.8333,36.5 91.1667,36.5 92.5,36.5C 91.7892,40.3819 89.4558,42.8819 85.5,44C 89.1305,44.271 90.1305,45.9377 88.5,49C 91.1667,49.3333 93.8333,49.6667 96.5,50C 99.3767,50.852 102.043,52.0186 104.5,53.5C 102.997,55.4216 100.997,56.5883 98.5,57C 95.5,57.3333 92.5,57.6667 89.5,58C 93.1914,58.4196 96.8581,58.9196 100.5,59.5C 100.439,62.0495 99.1059,63.5495 96.5,64C 88.1667,64.6667 79.8333,64.6667 71.5,64C 69.1125,60.7208 65.9458,58.5541 62,57.5C 61.2506,56.365 61.4173,55.365 62.5,54.5C 64.1667,53.6667 65.8333,52.8333 67.5,52C 66.552,51.5172 65.552,51.3505 64.5,51.5C 64.2965,49.6096 64.9632,48.1096 66.5,47C 73.5544,42.637 80.8877,39.137 88.5,36.5 Z"></path>
        <path opacity="0.892" fill="currentColor" d="M 45.5,58.5 C 48.3903,58.278 51.057,58.9447 53.5,60.5C 56.0229,58.592 58.6896,58.2586 61.5,59.5C 60.4688,60.7003 59.6355,62.0337 59,63.5C 58.3333,72.8333 58.3333,82.1667 59,91.5C 62.415,98.2975 67.915,102.297 75.5,103.5C 75.5,104.5 75.5,105.5 75.5,106.5C 60.8333,106.5 46.1667,106.5 31.5,106.5C 31.5,105.5 31.5,104.5 31.5,103.5C 39.085,102.297 44.585,98.2975 48,91.5C 48.6667,82.1667 48.6667,72.8333 48,63.5C 46.9055,61.9221 46.0722,60.2554 45.5,58.5 Z"></path>
        <path opacity="0.73" fill="currentColor" d="M 43.5,64.5 C 44.2389,64.369 44.9056,64.5357 45.5,65C 43,73.5 37.5,79 29,81.5C 29.3215,77.5411 30.6548,73.8744 33,70.5C 36.3507,68.0795 39.8507,66.0795 43.5,64.5 Z"></path>
        <path opacity="0.736" fill="currentColor" d="M 61.5,65.5 C 71.4519,65.9431 76.9519,71.2764 78,81.5C 69.9827,78.6479 64.4827,73.3146 61.5,65.5 Z"></path>
        <path opacity="0.669" fill="currentColor" d="M 22.5,82.5 C 23.8333,82.5 25.1667,82.5 26.5,82.5C 27.0113,86.3879 25.3447,88.7212 21.5,89.5C 20.1668,86.8619 20.5002,84.5286 22.5,82.5 Z"></path>
        <path opacity="0.669" fill="currentColor" d="M 80.5,82.5 C 85.7497,82.2357 87.4163,84.569 85.5,89.5C 81.6553,88.7212 79.9887,86.3879 80.5,82.5 Z"></path>
    </symbol>
</svg>